<?xml version="1.0" encoding="UTF-8" standalone="no"?>
<!DOCTYPE svg PUBLIC "-//W3C//DTD SVG 1.1//EN"
 "http://www.w3.org/Graphics/SVG/1.1/DTD/svg11.dtd">
<!-- Generated by graphviz version 12.2.1 (20241206.2353)
 -->
<!-- Title: DatabaseSchema Pages: 1 -->
<svg width="642pt" height="670pt"
 viewBox="0.00 0.00 641.75 670.00" xmlns="http://www.w3.org/2000/svg" xmlns:xlink="http://www.w3.org/1999/xlink">
<g id="graph0" class="graph" transform="scale(1 1) rotate(0) translate(4 666)">
<title>DatabaseSchema</title>
<polygon fill="white" stroke="none" points="-4,4 -4,-666 637.75,-666 637.75,4 -4,4"/>
<g id="clust1" class="cluster">
<title>cluster_rbac_assigned_permissions</title>
<polygon fill="lightgrey" stroke="lightgrey" points="249.62,-336 249.62,-518 390.88,-518 390.88,-336 249.62,-336"/>
<text text-anchor="middle" x="320.25" y="-502.6" font-family="Times,serif" font-size="12.00">rbac.assigned_permissions</text>
</g>
<g id="clust2" class="cluster">
<title>cluster_rbac_assigned_users</title>
<polygon fill="lightgrey" stroke="lightgrey" points="265.38,-144 265.38,-272 375.12,-272 375.12,-144 265.38,-144"/>
<text text-anchor="middle" x="320.25" y="-256.6" font-family="Times,serif" font-size="12.00">rbac.assigned_users</text>
</g>
<g id="clust3" class="cluster">
<title>cluster_rbac_objects</title>
<polygon fill="lightgrey" stroke="lightgrey" points="553.62,-390 553.62,-518 625.88,-518 625.88,-390 553.62,-390"/>
<text text-anchor="middle" x="589.75" y="-502.6" font-family="Times,serif" font-size="12.00">rbac.objects</text>
</g>
<g id="clust4" class="cluster">
<title>cluster_rbac_operations</title>
<polygon fill="lightgrey" stroke="lightgrey" points="545.75,-526 545.75,-654 633.75,-654 633.75,-526 545.75,-526"/>
<text text-anchor="middle" x="589.75" y="-638.6" font-family="Times,serif" font-size="12.00">rbac.operations</text>
</g>
<g id="clust5" class="cluster">
<title>cluster_rbac_roles</title>
<polygon fill="lightgrey" stroke="lightgrey" points="554.25,-254 554.25,-382 624.25,-382 624.25,-254 554.25,-254"/>
<text text-anchor="middle" x="589.25" y="-366.6" font-family="Times,serif" font-size="12.00">rbac.roles</text>
</g>
<g id="clust6" class="cluster">
<title>cluster_rbac_session_roles</title>
<polygon fill="lightgrey" stroke="lightgrey" points="0,-61 0,-243 101.5,-243 101.5,-61 0,-61"/>
<text text-anchor="middle" x="50.75" y="-227.6" font-family="Times,serif" font-size="12.00">rbac.session_roles</text>
</g>
<g id="clust7" class="cluster">
<title>cluster_rbac_sessions</title>
<polygon fill="lightgrey" stroke="lightgrey" points="281.5,-8 281.5,-136 359,-136 359,-8 281.5,-8"/>
<text text-anchor="middle" x="320.25" y="-120.6" font-family="Times,serif" font-size="12.00">rbac.sessions</text>
</g>
<g id="clust8" class="cluster">
<title>cluster_rbac_users</title>
<polygon fill="lightgrey" stroke="lightgrey" points="554.25,-97 554.25,-171 624.25,-171 624.25,-97 554.25,-97"/>
<text text-anchor="middle" x="589.25" y="-155.6" font-family="Times,serif" font-size="12.00">rbac.users</text>
</g>
<!-- rbac.assigned_permissions.operation_id -->
<g id="node1" class="node">
<title>rbac.assigned_permissions.operation_id</title>
<polygon fill="gold" stroke="black" points="357.75,-488 281.75,-488 281.75,-452 357.75,-452 357.75,-488"/>
<text text-anchor="middle" x="319.75" y="-472.12" font-family="Times,serif" font-size="10.00">operation_id ⚷</text>
<text text-anchor="middle" x="319.75" y="-460.12" font-family="Times,serif" font-size="10.00">uuid</text>
</g>
<!-- rbac.operations.id -->
<g id="node8" class="node">
<title>rbac.operations.id</title>
<polygon fill="gold" stroke="black" points="616.25,-570 562.25,-570 562.25,-534 616.25,-534 616.25,-570"/>
<text text-anchor="middle" x="589.25" y="-554.12" font-family="Times,serif" font-size="10.00">id ⚷</text>
<text text-anchor="middle" x="589.25" y="-542.12" font-family="Times,serif" font-size="10.00">uuid</text>
</g>
<!-- rbac.assigned_permissions.operation_id&#45;&gt;rbac.operations.id -->
<g id="edge2" class="edge">
<title>rbac.assigned_permissions.operation_id&#45;&gt;rbac.operations.id</title>
<path fill="none" stroke="darkgreen" d="M358.23,-481.49C409.4,-497.17 500.57,-525.12 551.41,-540.71"/>
<polygon fill="darkgreen" stroke="darkgreen" points="560.75,-543.57 549.87,-544.94 557.14,-542.46 551.19,-540.64 551.19,-540.64 551.19,-540.64 557.14,-542.46 552.51,-536.34 560.75,-543.57"/>
<text text-anchor="middle" x="470.88" y="-536.44" font-family="Times,serif" font-size="8.00">assigned_permissions_operation_id_fkey</text>
</g>
<!-- rbac.assigned_permissions.object_id -->
<g id="node2" class="node">
<title>rbac.assigned_permissions.object_id</title>
<polygon fill="gold" stroke="black" points="351,-434 288.5,-434 288.5,-398 351,-398 351,-434"/>
<text text-anchor="middle" x="319.75" y="-418.12" font-family="Times,serif" font-size="10.00">object_id ⚷</text>
<text text-anchor="middle" x="319.75" y="-406.12" font-family="Times,serif" font-size="10.00">uuid</text>
</g>
<!-- rbac.objects.id -->
<g id="node6" class="node">
<title>rbac.objects.id</title>
<polygon fill="gold" stroke="black" points="616.25,-434 562.25,-434 562.25,-398 616.25,-398 616.25,-434"/>
<text text-anchor="middle" x="589.25" y="-418.12" font-family="Times,serif" font-size="10.00">id ⚷</text>
<text text-anchor="middle" x="589.25" y="-406.12" font-family="Times,serif" font-size="10.00">uuid</text>
</g>
<!-- rbac.assigned_permissions.object_id&#45;&gt;rbac.objects.id -->
<g id="edge1" class="edge">
<title>rbac.assigned_permissions.object_id&#45;&gt;rbac.objects.id</title>
<path fill="none" stroke="darkgreen" d="M351.44,-416C400.79,-416 497.64,-416 550.92,-416"/>
<polygon fill="darkgreen" stroke="darkgreen" points="560.69,-416 550.69,-420.5 556.91,-416 550.69,-416 550.69,-416 550.69,-416 556.91,-416 550.69,-411.5 560.69,-416"/>
<text text-anchor="middle" x="470.88" y="-418.15" font-family="Times,serif" font-size="8.00">assigned_permissions_object_id_fkey</text>
</g>
<!-- rbac.assigned_permissions.role_id -->
<g id="node3" class="node">
<title>rbac.assigned_permissions.role_id</title>
<polygon fill="gold" stroke="black" points="346.75,-380 292.75,-380 292.75,-344 346.75,-344 346.75,-380"/>
<text text-anchor="middle" x="319.75" y="-364.12" font-family="Times,serif" font-size="10.00">role_id ⚷</text>
<text text-anchor="middle" x="319.75" y="-352.12" font-family="Times,serif" font-size="10.00">uuid</text>
</g>
<!-- rbac.roles.id -->
<g id="node10" class="node">
<title>rbac.roles.id</title>
<polygon fill="gold" stroke="black" points="616.25,-298 562.25,-298 562.25,-262 616.25,-262 616.25,-298"/>
<text text-anchor="middle" x="589.25" y="-282.12" font-family="Times,serif" font-size="10.00">id ⚷</text>
<text text-anchor="middle" x="589.25" y="-270.12" font-family="Times,serif" font-size="10.00">uuid</text>
</g>
<!-- rbac.assigned_permissions.role_id&#45;&gt;rbac.roles.id -->
<g id="edge3" class="edge">
<title>rbac.assigned_permissions.role_id&#45;&gt;rbac.roles.id</title>
<path fill="none" stroke="darkgreen" d="M347.05,-358.64C388.41,-352.76 470.65,-338.6 535.75,-312 539.49,-310.47 545.6,-307.06 552.35,-303"/>
<polygon fill="darkgreen" stroke="darkgreen" points="560.76,-297.82 554.6,-306.9 557.54,-299.81 552.25,-303.06 552.25,-303.06 552.25,-303.06 557.54,-299.81 549.89,-299.23 560.76,-297.82"/>
<text text-anchor="middle" x="470.88" y="-350.03" font-family="Times,serif" font-size="8.00">assigned_permissions_role_id_fkey</text>
</g>
<!-- rbac.assigned_users.user_id -->
<g id="node4" class="node">
<title>rbac.assigned_users.user_id</title>
<polygon fill="gold" stroke="black" points="346.75,-188 292.75,-188 292.75,-152 346.75,-152 346.75,-188"/>
<text text-anchor="middle" x="319.75" y="-172.12" font-family="Times,serif" font-size="10.00">user_id ⚷</text>
<text text-anchor="middle" x="319.75" y="-160.12" font-family="Times,serif" font-size="10.00">uuid</text>
</g>
<!-- rbac.users.id -->
<g id="node17" class="node">
<title>rbac.users.id</title>
<polygon fill="gold" stroke="black" points="616.25,-141 562.25,-141 562.25,-105 616.25,-105 616.25,-141"/>
<text text-anchor="middle" x="589.25" y="-125.12" font-family="Times,serif" font-size="10.00">id ⚷</text>
<text text-anchor="middle" x="589.25" y="-113.12" font-family="Times,serif" font-size="10.00">uuid</text>
</g>
<!-- rbac.assigned_users.user_id&#45;&gt;rbac.users.id -->
<g id="edge5" class="edge">
<title>rbac.assigned_users.user_id&#45;&gt;rbac.users.id</title>
<path fill="none" stroke="darkgreen" d="M346.89,-165.41C394.63,-157.02 496.08,-139.19 551.02,-129.54"/>
<polygon fill="darkgreen" stroke="darkgreen" points="560.81,-127.82 551.74,-133.98 557.08,-128.48 550.96,-129.55 550.96,-129.55 550.96,-129.55 557.08,-128.48 550.18,-125.12 560.81,-127.82"/>
<text text-anchor="middle" x="470.88" y="-156.95" font-family="Times,serif" font-size="8.00">assigned_users_user_id_fkey</text>
</g>
<!-- rbac.assigned_users.role_id -->
<g id="node5" class="node">
<title>rbac.assigned_users.role_id</title>
<polygon fill="gold" stroke="black" points="346.75,-242 292.75,-242 292.75,-206 346.75,-206 346.75,-242"/>
<text text-anchor="middle" x="319.75" y="-226.12" font-family="Times,serif" font-size="10.00">role_id ⚷</text>
<text text-anchor="middle" x="319.75" y="-214.12" font-family="Times,serif" font-size="10.00">uuid</text>
</g>
<!-- rbac.assigned_users.role_id&#45;&gt;rbac.roles.id -->
<g id="edge4" class="edge">
<title>rbac.assigned_users.role_id&#45;&gt;rbac.roles.id</title>
<path fill="none" stroke="darkgreen" d="M346.89,-229.47C394.73,-239.49 496.5,-260.79 551.37,-272.28"/>
<polygon fill="darkgreen" stroke="darkgreen" points="560.82,-274.26 550.11,-276.61 557.11,-273.48 551.03,-272.21 551.03,-272.21 551.03,-272.21 557.11,-273.48 551.95,-267.8 560.82,-274.26"/>
<text text-anchor="middle" x="470.88" y="-270.05" font-family="Times,serif" font-size="8.00">assigned_users_role_id_fkey</text>
</g>
<!-- rbac.objects.name -->
<g id="node7" class="node">
<title>rbac.objects.name</title>
<polygon fill="lightblue" stroke="black" points="616.25,-488 562.25,-488 562.25,-452 616.25,-452 616.25,-488"/>
<text text-anchor="middle" x="589.25" y="-471.75" font-family="Times,serif" font-size="10.00">name</text>
<text text-anchor="middle" x="589.25" y="-460.5" font-family="Times,serif" font-size="10.00">text</text>
</g>
<!-- rbac.operations.name -->
<g id="node9" class="node">
<title>rbac.operations.name</title>
<polygon fill="lightblue" stroke="black" points="616.25,-624 562.25,-624 562.25,-588 616.25,-588 616.25,-624"/>
<text text-anchor="middle" x="589.25" y="-607.75" font-family="Times,serif" font-size="10.00">name</text>
<text text-anchor="middle" x="589.25" y="-596.5" font-family="Times,serif" font-size="10.00">text</text>
</g>
<!-- rbac.roles.name -->
<g id="node11" class="node">
<title>rbac.roles.name</title>
<polygon fill="lightblue" stroke="black" points="616.25,-352 562.25,-352 562.25,-316 616.25,-316 616.25,-352"/>
<text text-anchor="middle" x="589.25" y="-335.75" font-family="Times,serif" font-size="10.00">name</text>
<text text-anchor="middle" x="589.25" y="-324.5" font-family="Times,serif" font-size="10.00">text</text>
</g>
<!-- rbac.session_roles.session_id -->
<g id="node12" class="node">
<title>rbac.session_roles.session_id</title>
<polygon fill="gold" stroke="black" points="83.38,-105 17.12,-105 17.12,-69 83.38,-69 83.38,-105"/>
<text text-anchor="middle" x="50.25" y="-89.12" font-family="Times,serif" font-size="10.00">session_id ⚷</text>
<text text-anchor="middle" x="50.25" y="-77.12" font-family="Times,serif" font-size="10.00">uuid</text>
</g>
<!-- rbac.sessions.id -->
<g id="node15" class="node">
<title>rbac.sessions.id</title>
<polygon fill="gold" stroke="black" points="346.75,-52 292.75,-52 292.75,-16 346.75,-16 346.75,-52"/>
<text text-anchor="middle" x="319.75" y="-36.12" font-family="Times,serif" font-size="10.00">id ⚷</text>
<text text-anchor="middle" x="319.75" y="-24.12" font-family="Times,serif" font-size="10.00">uuid</text>
</g>
<!-- rbac.session_roles.session_id&#45;&gt;rbac.sessions.id -->
<g id="edge7" class="edge">
<title>rbac.session_roles.session_id&#45;&gt;rbac.sessions.id</title>
<path fill="none" stroke="darkgreen" d="M74.52,-68.69C85.19,-61.32 98.36,-53.55 111.5,-49.25 168.54,-30.56 238.96,-29.72 281.29,-31.43"/>
<polygon fill="darkgreen" stroke="darkgreen" points="291.23,-31.9 281.03,-35.92 287.46,-31.72 281.25,-31.42 281.25,-31.42 281.25,-31.42 287.46,-31.72 281.46,-26.93 291.23,-31.9"/>
<text text-anchor="middle" x="173" y="-51.4" font-family="Times,serif" font-size="8.00">session_roles_session_id_fkey</text>
</g>
<!-- rbac.session_roles.session_id&#45;&gt;rbac.sessions.id -->
<g id="edge8" class="edge">
<title>rbac.session_roles.session_id&#45;&gt;rbac.sessions.id</title>
<path fill="none" stroke="blue" d="M83.61,-83.41C120.42,-79.02 182.21,-70.7 234.5,-59 250.16,-55.5 267.18,-50.65 281.79,-46.16"/>
<polygon fill="blue" stroke="blue" points="291.27,-43.18 283.08,-50.47 287.66,-44.32 281.73,-46.18 281.73,-46.18 281.73,-46.18 287.66,-44.32 280.38,-41.88 291.27,-43.18"/>
<text text-anchor="middle" x="173" y="-81.89" font-family="Times,serif" font-size="8.00">session_roles_session_id_user_id_fkey</text>
</g>
<!-- rbac.session_roles.user_id -->
<g id="node13" class="node">
<title>rbac.session_roles.user_id</title>
<polygon fill="lightblue" stroke="black" points="77.25,-159 23.25,-159 23.25,-123 77.25,-123 77.25,-159"/>
<text text-anchor="middle" x="50.25" y="-142.75" font-family="Times,serif" font-size="10.00">user_id</text>
<text text-anchor="middle" x="50.25" y="-131.5" font-family="Times,serif" font-size="10.00">uuid</text>
</g>
<!-- rbac.session_roles.user_id&#45;&gt;rbac.assigned_users.user_id -->
<g id="edge10" class="edge">
<title>rbac.session_roles.user_id&#45;&gt;rbac.assigned_users.user_id</title>
<path fill="none" stroke="darkviolet" d="M77.39,-143.83C125.13,-149.01 226.58,-160.01 281.52,-165.96"/>
<polygon fill="darkviolet" stroke="darkviolet" points="291.3,-167.02 280.87,-170.42 287.54,-166.62 281.35,-165.95 281.35,-165.95 281.35,-165.95 287.54,-166.62 281.84,-161.47 291.3,-167.02"/>
<text text-anchor="middle" x="173" y="-162.77" font-family="Times,serif" font-size="8.00">session_roles_user_id_role_id_fkey</text>
</g>
<!-- rbac.sessions.user_id -->
<g id="node16" class="node">
<title>rbac.sessions.user_id</title>
<polygon fill="lightblue" stroke="black" points="346.75,-106 292.75,-106 292.75,-70 346.75,-70 346.75,-106"/>
<text text-anchor="middle" x="319.75" y="-89.75" font-family="Times,serif" font-size="10.00">user_id</text>
<text text-anchor="middle" x="319.75" y="-78.5" font-family="Times,serif" font-size="10.00">uuid</text>
</g>
<!-- rbac.session_roles.user_id&#45;&gt;rbac.sessions.user_id -->
<g id="edge9" class="edge">
<title>rbac.session_roles.user_id&#45;&gt;rbac.sessions.user_id</title>
<path fill="none" stroke="blue" d="M77.39,-135.82C125.13,-126.36 226.58,-106.26 281.52,-95.38"/>
<polygon fill="blue" stroke="blue" points="291.31,-93.44 282.38,-99.79 287.6,-94.17 281.5,-95.38 281.5,-95.38 281.5,-95.38 287.6,-94.17 280.63,-90.97 291.31,-93.44"/>
</g>
<!-- rbac.session_roles.role_id -->
<g id="node14" class="node">
<title>rbac.session_roles.role_id</title>
<polygon fill="gold" stroke="black" points="77.25,-213 23.25,-213 23.25,-177 77.25,-177 77.25,-213"/>
<text text-anchor="middle" x="50.25" y="-197.12" font-family="Times,serif" font-size="10.00">role_id ⚷</text>
<text text-anchor="middle" x="50.25" y="-185.12" font-family="Times,serif" font-size="10.00">uuid</text>
</g>
<!-- rbac.session_roles.role_id&#45;&gt;rbac.assigned_users.role_id -->
<g id="edge11" class="edge">
<title>rbac.session_roles.role_id&#45;&gt;rbac.assigned_users.role_id</title>
<path fill="none" stroke="darkviolet" d="M77.39,-197.83C125.13,-203.01 226.58,-214.01 281.52,-219.96"/>
<polygon fill="darkviolet" stroke="darkviolet" points="291.3,-221.02 280.87,-224.42 287.54,-220.62 281.35,-219.95 281.35,-219.95 281.35,-219.95 287.54,-220.62 281.84,-215.47 291.3,-221.02"/>
</g>
<!-- rbac.session_roles.role_id&#45;&gt;rbac.roles.id -->
<g id="edge6" class="edge">
<title>rbac.session_roles.role_id&#45;&gt;rbac.roles.id</title>
<path fill="none" stroke="darkgreen" d="M77.53,-209.38C114.61,-228.8 184.98,-262.52 249.62,-276 357.18,-298.42 488.15,-290.24 551.04,-284.19"/>
<polygon fill="darkgreen" stroke="darkgreen" points="560.75,-283.21 551.25,-288.69 556.99,-283.59 550.8,-284.21 550.8,-284.21 550.8,-284.21 556.99,-283.59 550.35,-279.73 560.75,-283.21"/>
<text text-anchor="middle" x="319.75" y="-292.56" font-family="Times,serif" font-size="8.00">session_roles_role_id_fkey</text>
</g>
<!-- rbac.sessions.user_id&#45;&gt;rbac.users.id -->
<g id="edge12" class="edge">
<title>rbac.sessions.user_id&#45;&gt;rbac.users.id</title>
<path fill="none" stroke="darkgreen" d="M346.94,-90.83C387.48,-95.28 467.83,-104.45 535.75,-114.25 540.67,-114.96 545.83,-115.76 550.93,-116.57"/>
<polygon fill="darkgreen" stroke="darkgreen" points="560.64,-118.17 550.05,-120.99 556.91,-117.56 550.78,-116.55 550.78,-116.55 550.78,-116.55 556.91,-117.56 551.51,-112.11 560.64,-118.17"/>
<text text-anchor="middle" x="470.88" y="-116.4" font-family="Times,serif" font-size="8.00">sessions_user_id_fkey</text>
</g>
</g>
</svg>
