<?xml version="1.0" encoding="UTF-8" standalone="no"?>
<!DOCTYPE svg PUBLIC "-//W3C//DTD SVG 1.1//EN"
 "http://www.w3.org/Graphics/SVG/1.1/DTD/svg11.dtd">
<!-- Generated by graphviz version 12.2.1 (20241206.2353)
 -->
<!-- Title: DatabaseSchema Pages: 1 -->
<svg width="632pt" height="614pt"
 viewBox="0.00 0.00 631.50 614.00" xmlns="http://www.w3.org/2000/svg" xmlns:xlink="http://www.w3.org/1999/xlink">
<g id="graph0" class="graph" transform="scale(1 1) rotate(0) translate(4 610)">
<title>DatabaseSchema</title>
<polygon fill="white" stroke="none" points="-4,4 -4,-610 627.5,-610 627.5,4 -4,4"/>
<g id="clust1" class="cluster">
<title>cluster_rbac_assigned_permissions</title>
<polygon fill="lightgrey" stroke="lightgrey" points="244.5,-280 244.5,-462 385.75,-462 385.75,-280 244.5,-280"/>
<text text-anchor="middle" x="315.12" y="-446.6" font-family="Times,serif" font-size="12.00">rbac.assigned_permissions</text>
</g>
<g id="clust2" class="cluster">
<title>cluster_rbac_assigned_users</title>
<polygon fill="lightgrey" stroke="lightgrey" points="260.25,-144 260.25,-272 370,-272 370,-144 260.25,-144"/>
<text text-anchor="middle" x="315.12" y="-256.6" font-family="Times,serif" font-size="12.00">rbac.assigned_users</text>
</g>
<g id="clust3" class="cluster">
<title>cluster_rbac_objects</title>
<polygon fill="lightgrey" stroke="lightgrey" points="543.38,-334 543.38,-462 615.62,-462 615.62,-334 543.38,-334"/>
<text text-anchor="middle" x="579.5" y="-446.6" font-family="Times,serif" font-size="12.00">rbac.objects</text>
</g>
<g id="clust4" class="cluster">
<title>cluster_rbac_operations</title>
<polygon fill="lightgrey" stroke="lightgrey" points="535.5,-470 535.5,-598 623.5,-598 623.5,-470 535.5,-470"/>
<text text-anchor="middle" x="579.5" y="-582.6" font-family="Times,serif" font-size="12.00">rbac.operations</text>
</g>
<g id="clust5" class="cluster">
<title>cluster_rbac_roles</title>
<polygon fill="lightgrey" stroke="lightgrey" points="544,-198 544,-326 614,-326 614,-198 544,-198"/>
<text text-anchor="middle" x="579" y="-310.6" font-family="Times,serif" font-size="12.00">rbac.roles</text>
</g>
<g id="clust6" class="cluster">
<title>cluster_rbac_session_roles</title>
<polygon fill="lightgrey" stroke="lightgrey" points="0,-39 0,-221 101.5,-221 101.5,-39 0,-39"/>
<text text-anchor="middle" x="50.75" y="-205.6" font-family="Times,serif" font-size="12.00">rbac.session_roles</text>
</g>
<g id="clust7" class="cluster">
<title>cluster_rbac_sessions</title>
<polygon fill="lightgrey" stroke="lightgrey" points="276.38,-8 276.38,-136 353.88,-136 353.88,-8 276.38,-8"/>
<text text-anchor="middle" x="315.12" y="-120.6" font-family="Times,serif" font-size="12.00">rbac.sessions</text>
</g>
<g id="clust8" class="cluster">
<title>cluster_rbac_users</title>
<polygon fill="lightgrey" stroke="lightgrey" points="544,-95 544,-169 614,-169 614,-95 544,-95"/>
<text text-anchor="middle" x="579" y="-153.6" font-family="Times,serif" font-size="12.00">rbac.users</text>
</g>
<!-- rbac.assigned_permissions.operation_id -->
<g id="node1" class="node">
<title>rbac.assigned_permissions.operation_id</title>
<polygon fill="gold" stroke="black" points="352.62,-432 276.62,-432 276.62,-396 352.62,-396 352.62,-432"/>
<text text-anchor="middle" x="314.62" y="-416.12" font-family="Times,serif" font-size="10.00">operation_id ⚷</text>
<text text-anchor="middle" x="314.62" y="-404.12" font-family="Times,serif" font-size="10.00">uuid</text>
</g>
<!-- rbac.operations.id -->
<g id="node8" class="node">
<title>rbac.operations.id</title>
<polygon fill="gold" stroke="black" points="606,-514 552,-514 552,-478 606,-478 606,-514"/>
<text text-anchor="middle" x="579" y="-498.12" font-family="Times,serif" font-size="10.00">id ⚷</text>
<text text-anchor="middle" x="579" y="-486.12" font-family="Times,serif" font-size="10.00">uuid</text>
</g>
<!-- rbac.assigned_permissions.operation_id&#45;&gt;rbac.operations.id -->
<g id="edge2" class="edge">
<title>rbac.assigned_permissions.operation_id&#45;&gt;rbac.operations.id</title>
<path fill="none" stroke="darkgreen" d="M352.94,-425.66C402.92,-441.28 491.08,-468.83 540.93,-484.42"/>
<polygon fill="darkgreen" stroke="darkgreen" points="550.39,-487.37 539.51,-488.68 546.78,-486.24 540.85,-484.39 540.85,-484.39 540.85,-484.39 546.78,-486.24 542.19,-480.09 550.39,-487.37"/>
<text text-anchor="middle" x="460.62" y="-480.44" font-family="Times,serif" font-size="8.00">assigned_permissions_operation_id_fkey</text>
</g>
<!-- rbac.assigned_permissions.object_id -->
<g id="node2" class="node">
<title>rbac.assigned_permissions.object_id</title>
<polygon fill="gold" stroke="black" points="345.88,-378 283.38,-378 283.38,-342 345.88,-342 345.88,-378"/>
<text text-anchor="middle" x="314.62" y="-362.12" font-family="Times,serif" font-size="10.00">object_id ⚷</text>
<text text-anchor="middle" x="314.62" y="-350.12" font-family="Times,serif" font-size="10.00">uuid</text>
</g>
<!-- rbac.objects.id -->
<g id="node6" class="node">
<title>rbac.objects.id</title>
<polygon fill="gold" stroke="black" points="606,-378 552,-378 552,-342 606,-342 606,-378"/>
<text text-anchor="middle" x="579" y="-362.12" font-family="Times,serif" font-size="10.00">id ⚷</text>
<text text-anchor="middle" x="579" y="-350.12" font-family="Times,serif" font-size="10.00">uuid</text>
</g>
<!-- rbac.assigned_permissions.object_id&#45;&gt;rbac.objects.id -->
<g id="edge1" class="edge">
<title>rbac.assigned_permissions.object_id&#45;&gt;rbac.objects.id</title>
<path fill="none" stroke="darkgreen" d="M346.24,-360C394.5,-360 488.13,-360 540.41,-360"/>
<polygon fill="darkgreen" stroke="darkgreen" points="550.3,-360 540.3,-364.5 546.52,-360 540.3,-360 540.3,-360 540.3,-360 546.52,-360 540.3,-355.5 550.3,-360"/>
<text text-anchor="middle" x="460.62" y="-362.15" font-family="Times,serif" font-size="8.00">assigned_permissions_object_id_fkey</text>
</g>
<!-- rbac.assigned_permissions.role_id -->
<g id="node3" class="node">
<title>rbac.assigned_permissions.role_id</title>
<polygon fill="gold" stroke="black" points="341.62,-324 287.62,-324 287.62,-288 341.62,-288 341.62,-324"/>
<text text-anchor="middle" x="314.62" y="-308.12" font-family="Times,serif" font-size="10.00">role_id ⚷</text>
<text text-anchor="middle" x="314.62" y="-296.12" font-family="Times,serif" font-size="10.00">uuid</text>
</g>
<!-- rbac.roles.id -->
<g id="node10" class="node">
<title>rbac.roles.id</title>
<polygon fill="gold" stroke="black" points="606,-242 552,-242 552,-206 606,-206 606,-242"/>
<text text-anchor="middle" x="579" y="-226.12" font-family="Times,serif" font-size="10.00">id ⚷</text>
<text text-anchor="middle" x="579" y="-214.12" font-family="Times,serif" font-size="10.00">uuid</text>
</g>
<!-- rbac.assigned_permissions.role_id&#45;&gt;rbac.roles.id -->
<g id="edge3" class="edge">
<title>rbac.assigned_permissions.role_id&#45;&gt;rbac.roles.id</title>
<path fill="none" stroke="darkgreen" d="M341.74,-297.84C388.67,-283.17 487.37,-252.32 541.15,-235.52"/>
<polygon fill="darkgreen" stroke="darkgreen" points="550.44,-232.61 542.23,-239.89 546.83,-233.74 540.89,-235.6 540.89,-235.6 540.89,-235.6 546.83,-233.74 539.55,-231.3 550.44,-232.61"/>
<text text-anchor="middle" x="460.62" y="-281.63" font-family="Times,serif" font-size="8.00">assigned_permissions_role_id_fkey</text>
</g>
<!-- rbac.assigned_users.user_id -->
<g id="node4" class="node">
<title>rbac.assigned_users.user_id</title>
<polygon fill="gold" stroke="black" points="341.62,-188 287.62,-188 287.62,-152 341.62,-152 341.62,-188"/>
<text text-anchor="middle" x="314.62" y="-172.12" font-family="Times,serif" font-size="10.00">user_id ⚷</text>
<text text-anchor="middle" x="314.62" y="-160.12" font-family="Times,serif" font-size="10.00">uuid</text>
</g>
<!-- rbac.users.id -->
<g id="node17" class="node">
<title>rbac.users.id</title>
<polygon fill="gold" stroke="black" points="606,-139 552,-139 552,-103 606,-103 606,-139"/>
<text text-anchor="middle" x="579" y="-123.12" font-family="Times,serif" font-size="10.00">id ⚷</text>
<text text-anchor="middle" x="579" y="-111.12" font-family="Times,serif" font-size="10.00">uuid</text>
</g>
<!-- rbac.assigned_users.user_id&#45;&gt;rbac.users.id -->
<g id="edge5" class="edge">
<title>rbac.assigned_users.user_id&#45;&gt;rbac.users.id</title>
<path fill="none" stroke="darkgreen" d="M341.74,-165.12C388.57,-156.38 486.96,-138 540.82,-127.94"/>
<polygon fill="darkgreen" stroke="darkgreen" points="550.4,-126.15 541.4,-132.41 546.68,-126.85 540.57,-127.99 540.57,-127.99 540.57,-127.99 546.68,-126.85 539.75,-123.57 550.4,-126.15"/>
<text text-anchor="middle" x="460.62" y="-156.3" font-family="Times,serif" font-size="8.00">assigned_users_user_id_fkey</text>
</g>
<!-- rbac.assigned_users.role_id -->
<g id="node5" class="node">
<title>rbac.assigned_users.role_id</title>
<polygon fill="gold" stroke="black" points="341.62,-242 287.62,-242 287.62,-206 341.62,-206 341.62,-242"/>
<text text-anchor="middle" x="314.62" y="-226.12" font-family="Times,serif" font-size="10.00">role_id ⚷</text>
<text text-anchor="middle" x="314.62" y="-214.12" font-family="Times,serif" font-size="10.00">uuid</text>
</g>
<!-- rbac.assigned_users.role_id&#45;&gt;rbac.roles.id -->
<g id="edge4" class="edge">
<title>rbac.assigned_users.role_id&#45;&gt;rbac.roles.id</title>
<path fill="none" stroke="darkgreen" d="M341.74,-224C388.48,-224 486.55,-224 540.48,-224"/>
<polygon fill="darkgreen" stroke="darkgreen" points="550.38,-224 540.38,-228.5 546.6,-224 540.38,-224 540.38,-224 540.38,-224 546.6,-224 540.38,-219.5 550.38,-224"/>
<text text-anchor="middle" x="460.62" y="-226.15" font-family="Times,serif" font-size="8.00">assigned_users_role_id_fkey</text>
</g>
<!-- rbac.objects.name -->
<g id="node7" class="node">
<title>rbac.objects.name</title>
<polygon fill="lightblue" stroke="black" points="606,-432 552,-432 552,-396 606,-396 606,-432"/>
<text text-anchor="middle" x="579" y="-415.75" font-family="Times,serif" font-size="10.00">name</text>
<text text-anchor="middle" x="579" y="-404.5" font-family="Times,serif" font-size="10.00">text</text>
</g>
<!-- rbac.operations.name -->
<g id="node9" class="node">
<title>rbac.operations.name</title>
<polygon fill="lightblue" stroke="black" points="606,-568 552,-568 552,-532 606,-532 606,-568"/>
<text text-anchor="middle" x="579" y="-551.75" font-family="Times,serif" font-size="10.00">name</text>
<text text-anchor="middle" x="579" y="-540.5" font-family="Times,serif" font-size="10.00">text</text>
</g>
<!-- rbac.roles.name -->
<g id="node11" class="node">
<title>rbac.roles.name</title>
<polygon fill="lightblue" stroke="black" points="606,-296 552,-296 552,-260 606,-260 606,-296"/>
<text text-anchor="middle" x="579" y="-279.75" font-family="Times,serif" font-size="10.00">name</text>
<text text-anchor="middle" x="579" y="-268.5" font-family="Times,serif" font-size="10.00">text</text>
</g>
<!-- rbac.session_roles.session_id -->
<g id="node12" class="node">
<title>rbac.session_roles.session_id</title>
<polygon fill="gold" stroke="black" points="83.38,-83 17.12,-83 17.12,-47 83.38,-47 83.38,-83"/>
<text text-anchor="middle" x="50.25" y="-67.12" font-family="Times,serif" font-size="10.00">session_id ⚷</text>
<text text-anchor="middle" x="50.25" y="-55.12" font-family="Times,serif" font-size="10.00">uuid</text>
</g>
<!-- rbac.sessions.id -->
<g id="node15" class="node">
<title>rbac.sessions.id</title>
<polygon fill="gold" stroke="black" points="341.62,-52 287.62,-52 287.62,-16 341.62,-16 341.62,-52"/>
<text text-anchor="middle" x="314.62" y="-36.12" font-family="Times,serif" font-size="10.00">id ⚷</text>
<text text-anchor="middle" x="314.62" y="-24.12" font-family="Times,serif" font-size="10.00">uuid</text>
</g>
<!-- rbac.session_roles.session_id&#45;&gt;rbac.sessions.id -->
<g id="edge6" class="edge">
<title>rbac.session_roles.session_id&#45;&gt;rbac.sessions.id</title>
<path fill="none" stroke="blue" d="M83.69,-61.17C132.51,-55.4 224.63,-44.51 276.22,-38.42"/>
<polygon fill="blue" stroke="blue" points="285.98,-37.27 276.58,-42.91 282.23,-37.71 276.05,-38.44 276.05,-38.44 276.05,-38.44 282.23,-37.71 275.52,-33.97 285.98,-37.27"/>
<text text-anchor="middle" x="173" y="-59.66" font-family="Times,serif" font-size="8.00">session_roles_session_id_user_id_fkey</text>
</g>
<!-- rbac.session_roles.user_id -->
<g id="node13" class="node">
<title>rbac.session_roles.user_id</title>
<polygon fill="lightblue" stroke="black" points="77.25,-137 23.25,-137 23.25,-101 77.25,-101 77.25,-137"/>
<text text-anchor="middle" x="50.25" y="-120.75" font-family="Times,serif" font-size="10.00">user_id</text>
<text text-anchor="middle" x="50.25" y="-109.5" font-family="Times,serif" font-size="10.00">uuid</text>
</g>
<!-- rbac.session_roles.user_id&#45;&gt;rbac.assigned_users.user_id -->
<g id="edge8" class="edge">
<title>rbac.session_roles.user_id&#45;&gt;rbac.assigned_users.user_id</title>
<path fill="none" stroke="darkviolet" d="M77.37,-124.08C124.2,-133.18 222.58,-152.3 276.44,-162.77"/>
<polygon fill="darkviolet" stroke="darkviolet" points="286.03,-164.64 275.35,-167.14 282.32,-163.91 276.21,-162.73 276.21,-162.73 276.21,-162.73 282.32,-163.91 277.07,-158.31 286.03,-164.64"/>
<text text-anchor="middle" x="173" y="-155.65" font-family="Times,serif" font-size="8.00">session_roles_user_id_role_id_fkey</text>
</g>
<!-- rbac.sessions.user_id -->
<g id="node16" class="node">
<title>rbac.sessions.user_id</title>
<polygon fill="lightblue" stroke="black" points="341.62,-106 287.62,-106 287.62,-70 341.62,-70 341.62,-106"/>
<text text-anchor="middle" x="314.62" y="-89.75" font-family="Times,serif" font-size="10.00">user_id</text>
<text text-anchor="middle" x="314.62" y="-78.5" font-family="Times,serif" font-size="10.00">uuid</text>
</g>
<!-- rbac.session_roles.user_id&#45;&gt;rbac.sessions.user_id -->
<g id="edge7" class="edge">
<title>rbac.session_roles.user_id&#45;&gt;rbac.sessions.user_id</title>
<path fill="none" stroke="blue" d="M77.37,-115.91C124.1,-110.39 222.17,-98.81 276.1,-92.43"/>
<polygon fill="blue" stroke="blue" points="286.01,-91.26 276.61,-96.9 282.26,-91.71 276.08,-92.44 276.08,-92.44 276.08,-92.44 282.26,-91.71 275.56,-87.97 286.01,-91.26"/>
</g>
<!-- rbac.session_roles.role_id -->
<g id="node14" class="node">
<title>rbac.session_roles.role_id</title>
<polygon fill="gold" stroke="black" points="77.25,-191 23.25,-191 23.25,-155 77.25,-155 77.25,-191"/>
<text text-anchor="middle" x="50.25" y="-175.12" font-family="Times,serif" font-size="10.00">role_id ⚷</text>
<text text-anchor="middle" x="50.25" y="-163.12" font-family="Times,serif" font-size="10.00">uuid</text>
</g>
<!-- rbac.session_roles.role_id&#45;&gt;rbac.assigned_users.role_id -->
<g id="edge9" class="edge">
<title>rbac.session_roles.role_id&#45;&gt;rbac.assigned_users.role_id</title>
<path fill="none" stroke="darkviolet" d="M77.37,-178.08C124.2,-187.18 222.58,-206.3 276.44,-216.77"/>
<polygon fill="darkviolet" stroke="darkviolet" points="286.03,-218.64 275.35,-221.14 282.32,-217.91 276.21,-216.73 276.21,-216.73 276.21,-216.73 282.32,-217.91 277.07,-212.31 286.03,-218.64"/>
</g>
<!-- rbac.sessions.user_id&#45;&gt;rbac.users.id -->
<g id="edge10" class="edge">
<title>rbac.sessions.user_id&#45;&gt;rbac.users.id</title>
<path fill="none" stroke="darkgreen" d="M341.8,-91.24C381.52,-96.17 459.38,-105.86 525.5,-114.25 530.4,-114.87 535.56,-115.53 540.65,-116.18"/>
<polygon fill="darkgreen" stroke="darkgreen" points="550.35,-117.43 539.86,-120.62 546.6,-116.95 540.44,-116.15 540.44,-116.15 540.44,-116.15 546.6,-116.95 541.01,-111.69 550.35,-117.43"/>
<text text-anchor="middle" x="460.62" y="-116.4" font-family="Times,serif" font-size="8.00">sessions_user_id_fkey</text>
</g>
</g>
</svg>
